<?xml version="1.0" encoding="UTF-8"?>
<svg id="Capa_1" xmlns="http://www.w3.org/2000/svg" version="1.1" viewBox="0 0 14 14">
  <!-- Generator: Adobe Illustrator 30.1.0, SVG Export Plug-In . SVG Version: 2.1.1 Build 136)  -->
  <defs>
    <style>
      .st0 {
        fill: #e9b129;
      }
    </style>
  </defs>
  <path class="st0" d="M14,3.2l-4.9,4.9c-1.1,1.1-3,1.1-4.1,0L0,3.2c0,0,0,.2,0,.3v7c0,1.6,1.3,2.9,2.9,2.9h8.2c1.6,0,2.9-1.3,2.9-2.9V3.5c0,0,0-.2,0-.3Z"/>
  <path class="st0" d="M8.2,7.3L13.6,2c-.5-.9-1.5-1.4-2.5-1.4H2.9c-1,0-2,.5-2.5,1.4l5.3,5.3c.7.7,1.8.7,2.5,0Z"/>
</svg>
