<?xml version="1.0" encoding="UTF-8"?>
<svg id="Capa_1" xmlns="http://www.w3.org/2000/svg" version="1.1" viewBox="0 0 14 14">
  <!-- Generator: Adobe Illustrator 30.1.0, SVG Export Plug-In . SVG Version: 2.1.1 Build 136)  -->
  <defs>
    <style>
      .st0 {
        fill: #e9b129;
      }
    </style>
  </defs>
  <path class="st0" d="M13.7,9.4l-5.1-2.3s0,0,0,0c-.4-.1-.9,0-1.2.3s-.4.8-.3,1.3l2.3,5.1c0,.2.3.3.5.3h0c.2,0,.4-.1.5-.3l1.1-2.2,2.2-1.1c.2-.1.3-.3.3-.5,0-.2-.1-.4-.3-.5h0ZM7.5,12.8c-.1,0-.2,0-.3,0-.4-.4-1.4-1.5-2.1-2.9h.4c.3,0,.6-.3.6-.6s-.3-.6-.6-.6h-.9c-.2-.6-.3-1.1-.3-1.7s.1-1.2.3-1.7h4.7c0,.2.1.5.2.7,0,.3.4.5.7.5.3,0,.5-.4.5-.7,0-.2,0-.3-.1-.5h2c.2.6.3,1.1.3,1.8s0,.4,0,.5c0,.3.2.6.5.6.3,0,.6-.2.6-.5,0-.2,0-.4,0-.6,0-3.9-3.1-7-7-7S0,3.1,0,7s3.1,7,7,7h0c.2,0,.4,0,.6,0,.3,0,.6-.3.5-.6,0-.3-.3-.6-.6-.5h0ZM3.4,8.7H1.4c-.2-.6-.3-1.1-.3-1.8s0-1.2.3-1.8h2c-.1.6-.2,1.1-.2,1.7s0,1.2.2,1.7h0ZM5.1,4.1c.6-1.2,1.4-2.2,1.9-2.7.5.5,1.3,1.5,1.9,2.7h-3.8ZM12,4.1h-1.9c-.5-1.1-1.1-2-1.7-2.7,1.5.4,2.8,1.4,3.5,2.7ZM5.5,1.4c-.6.7-1.2,1.6-1.7,2.7h-1.9c.8-1.3,2-2.3,3.5-2.7ZM1.9,9.9h1.9c.5,1.1,1.1,2,1.7,2.7-1.5-.4-2.8-1.4-3.5-2.7Z"/>
</svg>
